<svg xmlns="http://www.w3.org/2000/svg" viewBox="0 0 64 64" role="img" aria-labelledby="title desc">
  <title id="title">Behzad Meghrazchi monogram icon</title>
  <desc id="desc">A dark purple geometric M monogram on a transparent background.</desc>
  <defs>
    <linearGradient id="edge" x1="4" x2="60" y1="6" y2="58" gradientUnits="userSpaceOnUse">
      <stop offset="0" stop-color="#c084fc" />
      <stop offset="0.36" stop-color="#7c3aed" />
      <stop offset="1" stop-color="#312e81" />
    </linearGradient>
    <linearGradient id="core" x1="32" x2="32" y1="9" y2="58" gradientUnits="userSpaceOnUse">
      <stop offset="0" stop-color="#a855f7" />
      <stop offset="0.55" stop-color="#4c1d95" />
      <stop offset="1" stop-color="#111827" />
    </linearGradient>
    <filter id="glow" x="-20%" y="-20%" width="140%" height="140%" color-interpolation-filters="sRGB">
      <feDropShadow dx="0" dy="0" stdDeviation="1.3" flood-color="#8b5cf6" flood-opacity="0.55" />
      <feDropShadow dx="0" dy="4" stdDeviation="2" flood-color="#020617" flood-opacity="0.8" />
    </filter>
  </defs>
  <g filter="url(#glow)">
    <path d="M4 7 15 17v41L4 48Z" fill="url(#edge)" />
    <path d="M8 13 12 17v32l-4-4Z" fill="#020617" opacity="0.64" />
    <path d="M17 20 29 32v19L17 40Z" fill="url(#core)" />
    <path d="M21 28 27 34v10l-6-6Z" fill="#020617" opacity="0.5" />
    <path d="M60 7 49 17v41l11-10Z" fill="url(#edge)" />
    <path d="M56 13 52 17v32l4-4Z" fill="#020617" opacity="0.64" />
    <path d="M47 20 35 32v19l12-11Z" fill="url(#core)" />
    <path d="M43 28 37 34v10l6-6Z" fill="#020617" opacity="0.5" />
    <path d="M30.5 34 32 35.5 33.5 34v18h-3Z" fill="#020617" opacity="0.7" />
  </g>
</svg>
